# xmcd
#
# Track frame offsets: 
#        182
#        12570
#        25787
#        37910
#        55877
#        70440
#        83572
#        99820
#        117442
#        129435
#        141755
#
# Disc length: 2113 seconds
#
# Revision: 2
# Processed by: cddbd v1.5PL3 Copyright (c) Steve Scherf et al.
# Submitted via: ExactAudioCopy v0.95a3
#
DISCID=89083f0b
DTITLE=Ronna Reeves - What Comes Naturally
DYEAR=1993
DGENRE=
TTITLE0=She Wins
TTITLE1=That's All Right With Me
TTITLE2=Waitin' For The Phone To Ring
TTITLE3=Staying Gone
TTITLE4=A Hundred And One
TTITLE5=This Can't Be Anything But Love
TTITLE6=Never Let Him See Me Cry
TTITLE7=How Could You
TTITLE8=It Only Hurts When I Laugh
TTITLE9=You Can't Say (You Don't Love Me Anymore)
TTITLE10=He's My Weakness
EXTD=
EXTT0=
EXTT1=
EXTT2=
EXTT3=
EXTT4=
EXTT5=
EXTT6=
EXTT7=
EXTT8=
EXTT9=
EXTT10=
PLAYORDER=
